# xmcd
#
# Track frame offsets:
#	200
#	4337
#	14442
#	30195
#	45750
#	68967
#	82755
#	94925
#	107705
#	122955
#	136065
#	162095
#	171320
#	186750
#	203345
#	211795
#	225872
#	238512
#	256630
#	271637
#	288852
#	309332
#
# Disc length: 4285 seconds
#
# Revision: 1
# Processed by: cddbd v1.4PL0 Copyright (c) Steve Scherf et al.
# Submitted via: audiograbber 1.81.03
#
DISCID=0310bb16
DTITLE=Blue Sky Boys - In Concert, 1964
DYEAR=1964
DGENRE=Country
TTITLE0=Are You Frim Dixie
TTITLE1=Quit That Ticklin' Me
TTITLE2=I'm Just Here To Get My Baby Out Of Jail
TTITLE3=Worried Man Blues
TTITLE4=After The Ball
TTITLE5=Behind These Prison Walls Of Love
TTITLE6=The Last Letter
TTITLE7=The Fox
TTITLE8=The Sweetest Gift
TTITLE9=Only One Step More
TTITLE10=Uncle Josh Comedy Skit
TTITLE11=Don't Trade
TTITLE12=Kentucky
TTITLE13=If I Could Hear My Mother Pray Again
TTITLE14=Sweetheart Mountain Rose
TTITLE15=It Was Midnight On The Stormy Deep
TTITLE16=Beautiful
TTITLE17=In The Hills Of Roane County
TTITLE18=I'm Saved
TTITLE19=Whispering Hope
TTITLE20=The Butcher's Boy
TTITLE21=Are You From Dixie
EXTD=Rounder CD-11536-(1989]\nRecorded October 17, 1964 at U. of Illinois, Cham
EXTD=paign, Ill.
EXTT0=
EXTT1=
EXTT2=
EXTT3=
EXTT4=
EXTT5=
EXTT6=
EXTT7=
EXTT8=
EXTT9=
EXTT10=
EXTT11=
EXTT12=
EXTT13=
EXTT14=
EXTT15=
EXTT16=
EXTT17=
EXTT18=
EXTT19=
EXTT20=
EXTT21=
PLAYORDER=
